<?xml version="1.0" encoding="UTF-8" standalone="no"?>
<svg
   xmlns:dc="http://purl.org/dc/elements/1.1/"
   xmlns:cc="http://creativecommons.org/ns#"
   xmlns:rdf="http://www.w3.org/1999/02/22-rdf-syntax-ns#"
   xmlns:svg="http://www.w3.org/2000/svg"
   xmlns="http://www.w3.org/2000/svg"
   xmlns:sodipodi="http://sodipodi.sourceforge.net/DTD/sodipodi-0.dtd"
   xmlns:inkscape="http://www.inkscape.org/namespaces/inkscape"
   id="Layer"
   enable-background="new 0 0 64 64"
   height="512"
   viewBox="0 0 64 64"
   width="512"
   version="1.1"
   sodipodi:docname="line-spacing-big.svg"
   inkscape:version="0.92.5 (2060ec1f9f, 2020-04-08)">
  <metadata
     id="metadata3787">
    <rdf:RDF>
      <cc:Work
         rdf:about="">
        <dc:format>image/svg+xml</dc:format>
        <dc:type
           rdf:resource="http://purl.org/dc/dcmitype/StillImage" />
        <dc:title></dc:title>
      </cc:Work>
    </rdf:RDF>
  </metadata>
  <defs
     id="defs3785" />
  <sodipodi:namedview
     pagecolor="#ffffff"
     bordercolor="#666666"
     borderopacity="1"
     objecttolerance="10"
     gridtolerance="10"
     guidetolerance="10"
     inkscape:pageopacity="0"
     inkscape:pageshadow="2"
     inkscape:window-width="1920"
     inkscape:window-height="1021"
     id="namedview3783"
     showgrid="false"
     inkscape:zoom="0.8203125"
     inkscape:cx="206.36453"
     inkscape:cy="294.55607"
     inkscape:window-x="0"
     inkscape:window-y="32"
     inkscape:window-maximized="1"
     inkscape:current-layer="Layer" />
  <path
     d="m 55.066667,48.800001 h -24 c -1.104,0 -2,0.896 -2,2 0,1.104 0.896,2 2,2 h 24 c 1.104,0 2,-0.896 2,-2 0,-1.104 -0.896,-2 -2,-2 z"
     id="path3772"
     inkscape:connector-curvature="0" />
  <path
     d="m 55.219048,9.5523814 h -24 c -1.104,0 -2,0.8959996 -2,2.0000006 0,1.104 0.896,2 2,2 h 24 c 1.104,0 2,-0.896 2,-2 0,-1.104001 -0.896,-2.0000006 -2,-2.0000006 z"
     id="path3774"
     inkscape:connector-curvature="0" />
  <path
     d="m 54.914286,28.476191 h -24 c -1.104,0 -2,0.896 -2,2 0,1.104 0.896,2 2,2 h 24 c 1.104,0 2,-0.896 2,-2 0,-1.104 -0.896,-2 -2,-2 z"
     id="path3776"
     inkscape:connector-curvature="0" />
  <path
     d="m11.414 46.586c-.78-.781-2.048-.781-2.828 0-.781.781-.781 2.047 0 2.828l6 6c.39.391.902.586 1.414.586s1.024-.195 1.414-.586l6-6c.781-.781.781-2.047 0-2.828-.78-.781-2.048-.781-2.828 0l-2.586 2.586v-34.344l2.586 2.586c.39.391.902.586 1.414.586s1.024-.195 1.414-.586c.781-.781.781-2.047 0-2.828l-6-6c-.78-.781-2.048-.781-2.828 0l-6 6c-.781.781-.781 2.047 0 2.828.78.781 2.048.781 2.828 0l2.586-2.586v34.343z"
     id="path3780" />
</svg>
